<?xml version="1.0" encoding="utf-8"?>
<!-- Generator: Adobe Illustrator 15.0.0, SVG Export Plug-In . SVG Version: 6.00 Build 0)  -->
<!DOCTYPE svg PUBLIC "-//W3C//DTD SVG 1.1//EN" "http://www.w3.org/Graphics/SVG/1.1/DTD/svg11.dtd">
<svg version="1.1" id="Layer_1" xmlns="http://www.w3.org/2000/svg" xmlns:xlink="http://www.w3.org/1999/xlink" x="0px" y="0px"
	 width="108px" height="108px" viewBox="0 0 108 108" enable-background="new 0 0 108 108" xml:space="preserve">
<path fill="#A58D9B" d="M58.006,0.151C28.266-2.06,2.364,20.259,0.153,49.999c-2.212,29.742,20.105,55.645,49.846,57.855
	c29.742,2.211,55.642-20.104,57.855-49.848C110.064,28.267,87.748,2.364,58.006,0.151z M52.277,37.219c0,14.324,0,28.647,0,42.971
	c0,0.164-0.074,0.276-0.177,0.349c-0.126,0.119-0.312,0.166-0.504,0.042c-2.955-1.9-6.498-2.939-10.281-3.384
	c-0.268-0.027-0.53-0.059-0.809-0.082c-1.641-0.14-3.276-0.188-4.881-0.167c-7.329,0.178-14.945,2.047-20.708,4.097
	c-0.281,0.1-0.573-0.158-0.573-0.437c0-17.034,0-34.068,0-51.103c0-0.211,0.14-0.37,0.333-0.437
	c10.689-3.675,24.124-5.639,34.838-1.3c1.295,0.524,2.764,0.85,2.764,2.326C52.277,32.469,52.277,34.844,52.277,37.219z
	 M93.312,80.607c0,0.278-0.292,0.536-0.572,0.437c-5.77-2.052-13.394-3.923-20.728-4.097c-1.6-0.021-3.229,0.028-4.865,0.167
	c-0.271,0.023-0.526,0.053-0.787,0.08c-3.791,0.442-7.341,1.482-10.302,3.386c-0.193,0.124-0.378,0.077-0.505-0.042
	c-0.102-0.072-0.176-0.186-0.176-0.349c0-14.563,0-29.128,0-43.692c0-2.264,0-4.528,0-6.792c0-1.311,2.835-2.021,3.808-2.359
	c10.585-3.685,23.367-1.863,33.795,1.723c0.192,0.066,0.332,0.226,0.332,0.437C93.312,46.539,93.312,63.573,93.312,80.607z"/>
</svg>
